<?xml version="1.0" standalone="no"?>
<!DOCTYPE svg PUBLIC "-//W3C//DTD SVG 20010904//EN"
 "http://www.w3.org/TR/2001/REC-SVG-20010904/DTD/svg10.dtd">
<svg version="1.0" xmlns="http://www.w3.org/2000/svg"
 width="1024.000000pt" height="1024.000000pt" viewBox="0 0 1024.000000 1024.000000"
 preserveAspectRatio="xMidYMid meet">

<g transform="translate(0.000000,1024.000000) scale(0.100000,-0.100000)"
fill="#000000" stroke="none">
<path d="M0 5120 l0 -5120 5120 0 5120 0 0 5120 0 5120 -5120 0 -5120 0 0
-5120z m4860 3429 c452 -41 847 -229 1155 -551 128 -133 218 -260 300 -423
247 -492 254 -1068 20 -1562 -54 -113 -140 -254 -201 -329 l-33 -40 112 -111
112 -112 45 11 c33 7 57 7 90 -2 40 -10 82 -49 408 -373 200 -199 373 -378
385 -397 28 -45 30 -139 3 -190 -25 -49 -192 -209 -241 -231 -46 -21 -93 -24
-150 -8 -34 9 -98 69 -407 377 -207 206 -375 381 -384 401 -11 22 -16 58 -16
96 l1 61 -109 109 -110 109 -27 -22 c-204 -159 -457 -279 -714 -336 -373 -82
-729 -50 -1074 98 -554 237 -959 743 -1066 1332 -31 167 -31 458 -1 624 120
658 560 1173 1181 1380 249 84 476 112 721 89z m3810 -4899 c18 -18 20 -33 20
-181 0 -125 3 -159 13 -153 8 5 8 2 -2 -9 -18 -22 -15 -22 43 8 47 24 49 37 3
14 -21 -10 -21 -10 -3 5 22 18 20 17 126 21 84 3 113 -2 104 -17 -4 -6 1 -8
16 -3 13 4 20 3 17 -2 -3 -5 4 -15 16 -23 21 -12 21 -12 7 5 -13 17 -13 18 0
10 39 -21 102 -79 115 -105 17 -33 19 -44 6 -36 -5 4 -7 -3 -4 -15 4 -13 8
-17 13 -9 13 21 20 -18 15 -78 -3 -45 -2 -49 4 -22 5 21 8 -60 9 -210 0 -136
-4 -234 -8 -220 l-8 25 -1 -27 -1 -28 -80 0 c-66 0 -80 3 -80 16 0 8 -4 12
-10 9 -6 -4 -10 33 -11 102 0 59 -4 168 -8 241 l-6 134 -38 34 c-32 29 -44 34
-88 34 -28 0 -67 -7 -86 -16 -65 -31 -67 -42 -73 -304 -2 -141 -7 -213 -10
-180 l-7 55 -1 -62 -2 -63 -79 0 c-50 0 -83 4 -87 12 -4 6 -7 45 -6 85 0 40
-3 71 -8 68 -5 -3 -9 145 -10 329 -1 347 9 582 21 516 l6 -35 2 38 c1 36 2 37
39 38 33 1 34 2 12 9 -19 6 -11 8 33 9 45 1 61 -3 77 -19z m-3172 -15 c62 -19
136 -68 175 -117 29 -36 30 -39 13 -57 -10 -11 -35 -32 -57 -47 l-39 -27 -35
40 c-87 102 -252 118 -337 33 -34 -34 -38 -43 -38 -88 0 -40 6 -57 26 -82 33
-38 57 -51 193 -100 150 -53 202 -82 249 -135 89 -101 80 -269 -20 -365 -152
-145 -447 -128 -597 35 -22 24 -41 50 -41 58 0 7 22 29 48 50 l49 36 55 -54
c41 -39 70 -58 109 -69 71 -22 164 -20 215 3 61 28 84 63 84 129 0 51 -3 58
-39 93 -28 26 -69 48 -138 74 -281 106 -355 172 -356 319 -2 213 232 345 481
271z m-3903 -343 c89 -189 165 -344 170 -344 4 1 80 155 169 344 l161 343 108
3 107 3 0 -521 0 -520 -85 0 -85 0 0 388 c0 382 -1 387 -19 357 -10 -16 -79
-159 -152 -317 l-133 -288 -63 0 c-35 0 -66 0 -69 -1 -4 0 -70 134 -148 298
-78 164 -147 307 -154 318 -9 16 -11 -65 -12 -367 l0 -388 -80 0 -80 0 -2 521
c-2 286 -2 521 -1 522 1 1 47 0 104 -3 l102 -5 162 -343z m2526 329 c55 -55
31 -146 -45 -171 -99 -32 -172 96 -97 171 23 23 38 29 71 29 33 0 48 -6 71
-29z m4058 -265 c9 -7 32 -16 51 -20 26 -4 31 -3 20 5 -12 8 -9 9 10 4 14 -4
30 -12 35 -17 6 -6 3 -7 -10 -3 l-20 7 20 -13 c11 -6 29 -19 40 -28 l20 -16
-20 24 -20 24 20 -11 c11 -5 29 -20 40 -33 12 -13 14 -19 5 -14 -13 8 -13 6
-1 -8 7 -9 17 -15 21 -12 5 3 12 0 16 -6 4 -8 3 -9 -4 -5 -16 10 -15 0 4 -29
15 -23 15 -27 0 -50 -9 -14 -34 -34 -56 -45 l-39 -20 -38 41 c-21 23 -47 46
-58 51 -11 6 -4 -5 16 -23 19 -19 26 -26 15 -17 -93 76 -242 33 -291 -84 -31
-77 -7 -219 42 -247 10 -5 14 -13 10 -17 -4 -5 -19 5 -33 21 -20 24 -23 25
-14 7 13 -26 95 -82 119 -82 9 0 -4 9 -28 20 -24 11 -41 23 -38 26 3 3 19 -2
36 -11 57 -29 138 -22 196 18 l30 21 -20 -25 c-11 -14 -5 -10 13 9 26 26 36
31 47 22 8 -7 18 -9 24 -6 5 3 20 -3 32 -15 l24 -20 -30 16 c-28 16 -29 16
-10 0 11 -9 31 -25 45 -35 20 -15 22 -20 11 -33 -7 -9 -9 -22 -5 -28 4 -7 3
-10 -2 -7 -5 4 -27 -10 -49 -29 l-40 -36 40 28 c25 18 34 21 23 9 -19 -22 -84
-62 -74 -46 5 8 2 10 -8 6 -9 -3 -13 -10 -10 -15 3 -5 3 -9 0 -9 -2 0 -13 -3
-23 -6 -15 -5 -16 -4 -3 6 12 9 10 10 -10 4 -14 -4 -26 -9 -28 -13 -4 -12
-197 6 -234 22 -21 9 -38 14 -38 11 0 -3 15 -11 33 -19 17 -8 26 -14 19 -15
-43 -1 -178 104 -208 162 -21 40 -11 34 21 -12 15 -22 30 -38 32 -36 3 3 -6
20 -20 38 -33 44 -55 89 -67 135 l-10 38 5 -45 c6 -61 -12 -19 -21 49 -7 57 4
157 15 128 5 -13 10 -6 19 28 7 26 10 51 7 56 -8 13 45 88 94 132 43 39 109
78 95 56 -5 -9 -2 -10 12 -4 10 4 38 13 62 19 23 6 42 14 42 18 0 4 17 5 38 3
31 -4 33 -3 12 4 l-25 9 29 1 c16 1 37 -5 45 -13z m-112 -2 c-3 -3 -12 -4 -19
-1 -8 3 -5 6 6 6 11 1 17 -2 13 -5z m150 0 c-3 -3 -12 -4 -19 -1 -8 3 -5 6 6
6 11 1 17 -2 13 -5z m-1248 -14 c35 -6 80 -19 101 -30 48 -25 104 -89 118
-138 7 -23 12 -137 12 -302 l1 -265 -70 -3 -71 -3 -2 28 c0 15 -1 34 -1 41 1
16 2 17 -56 -22 -86 -58 -219 -71 -314 -31 -178 74 -180 319 -3 410 56 28 66
30 165 29 64 -1 125 -8 154 -17 l47 -15 0 41 c0 56 -27 107 -69 131 -71 41
-209 19 -265 -43 -11 -12 -24 -21 -31 -21 -6 0 -28 23 -48 52 -43 62 -40 67
52 117 85 45 173 58 280 41z m1046 0 c-27 -12 -43 -12 -25 0 8 5 22 9 30 9 10
0 8 -3 -5 -9z m-5040 -37 c76 -40 136 -102 172 -178 25 -53 28 -71 28 -160 0
-89 -4 -107 -29 -162 -35 -76 -104 -144 -184 -181 -50 -24 -69 -27 -162 -27
-93 0 -111 3 -160 26 -116 56 -189 154 -210 282 -30 190 66 356 243 419 40 14
73 18 147 15 83 -3 103 -7 155 -34z m1763 8 c120 -62 184 -168 190 -313 l4
-88 -275 -2 -275 -3 13 -39 c16 -47 57 -91 109 -118 78 -40 217 -18 284 45
l24 22 39 -45 c21 -25 39 -51 39 -57 0 -19 -85 -77 -144 -99 -37 -14 -77 -19
-146 -19 -87 0 -101 3 -160 32 -76 37 -94 52 -142 115 -70 92 -90 279 -41 390
37 82 123 162 212 195 58 21 215 12 269 -16z m1557 -3 c59 -31 125 -97 153
-154 27 -52 45 -156 37 -205 l-7 -39 -273 0 -274 0 10 -32 c11 -41 57 -98 97
-121 42 -24 123 -36 180 -25 26 4 70 24 99 43 l52 34 41 -47 42 -47 -42 -37
c-66 -59 -137 -82 -255 -82 -89 -1 -106 2 -160 27 -78 37 -146 104 -182 181
-25 55 -28 72 -28 171 0 100 2 115 28 167 35 71 119 149 190 177 77 31 222 25
292 -11z m1430 26 c17 -4 20 -13 18 -57 l-1 -52 7 45 8 45 1 -52 c2 -49 -10
-78 -21 -51 -3 7 -6 3 -6 -8 -1 -17 -9 -22 -43 -28 -24 -3 -54 -8 -68 -11 -14
-2 -7 2 15 10 l40 15 -40 -6 c-52 -7 -95 -35 -120 -76 -18 -30 -20 -54 -23
-270 l-3 -238 -80 0 -79 0 0 365 0 365 80 0 c79 0 80 0 80 -26 0 -14 4 -23 10
-19 5 3 7 13 4 23 -5 13 -4 14 4 3 11 -16 36 -5 26 11 -4 6 -2 8 4 5 5 -4 21
-3 34 2 25 11 121 14 153 5z m-4357 -81 c16 -43 60 -160 98 -261 38 -101 70
-179 71 -175 2 4 46 121 97 258 l94 250 81 3 c45 2 81 1 81 -1 0 -3 -121 -317
-235 -612 l-43 -110 -79 -3 -78 -3 -67 173 c-36 95 -98 255 -137 356 -39 100
-71 187 -71 192 0 6 34 10 79 10 l79 0 30 -77z m762 -288 l0 -365 -75 0 -75 0
0 365 0 365 75 0 75 0 0 -365z m3427 162 c-18 -18 -34 -31 -36 -30 -6 4 51 63
60 63 4 0 -7 -15 -24 -33z m490 -543 c-3 -3 -12 -4 -19 -1 -8 3 -5 6 6 6 11 1
17 -2 13 -5z m581 -1 c-21 -2 -55 -2 -75 0 -21 2 -4 4 37 4 41 0 58 -2 38 -4z
m500 0 c-21 -2 -57 -2 -80 0 -24 2 -7 4 37 4 44 0 63 -2 43 -4z m-1015 -10
c-7 -2 -21 -2 -30 0 -10 3 -4 5 12 5 17 0 24 -2 18 -5z m84 1 c-3 -3 -12 -4
-19 -1 -8 3 -5 6 6 6 11 1 17 -2 13 -5z"/>
<path d="M4540 8240 c-188 -26 -341 -74 -510 -161 -148 -76 -262 -162 -381
-287 -194 -201 -319 -437 -381 -712 -20 -92 -23 -131 -23 -310 1 -186 3 -215
27 -317 69 -291 216 -545 441 -759 200 -192 445 -318 732 -379 122 -26 337
-31 473 -11 636 94 1117 546 1254 1179 32 147 32 437 0 584 -128 594 -584
1041 -1182 1158 -99 19 -356 28 -450 15z m1240 -995 l0 -205 -200 0 -200 0 0
-330 0 -330 200 0 200 0 0 -205 0 -205 -1050 0 -1050 0 0 205 0 205 175 0 175
0 0 330 0 330 -180 0 -180 0 0 205 0 205 1055 0 1055 0 0 -205z"/>
<path d="M3836 7307 c-14 -10 -16 -25 -14 -82 l3 -70 100 0 100 0 3 70 c4 87
-5 95 -103 95 -42 0 -78 -5 -89 -13z"/>
<path d="M4226 7307 c-14 -10 -16 -25 -14 -82 l3 -70 100 0 100 0 3 70 c4 87
-5 95 -103 95 -42 0 -78 -5 -89 -13z"/>
<path d="M4616 7307 c-14 -10 -16 -25 -14 -82 l3 -70 100 0 100 0 3 70 c4 87
-5 95 -103 95 -42 0 -78 -5 -89 -13z"/>
<path d="M5006 7307 c-14 -10 -16 -25 -14 -82 l3 -70 95 -3 c80 -2 97 0 107
15 18 24 16 104 -3 131 -13 19 -24 22 -93 22 -47 0 -84 -5 -95 -13z"/>
<path d="M5396 7304 c-17 -17 -22 -118 -8 -142 6 -9 34 -12 103 -10 l94 3 3
68 c2 42 -2 74 -9 83 -17 21 -162 19 -183 -2z"/>
<path d="M4210 6710 l0 -330 500 0 500 0 0 330 0 330 -500 0 -500 0 0 -330z"/>
<path d="M3865 6263 c-16 -3 -33 -10 -37 -16 -14 -21 -9 -124 6 -136 9 -8 46
-11 103 -9 l88 3 3 73 c3 70 2 72 -23 82 -26 10 -83 11 -140 3z"/>
<path d="M4250 6260 l-35 -5 0 -75 0 -75 100 0 100 0 3 69 c2 38 -2 74 -7 79
-11 11 -104 15 -161 7z"/>
<path d="M4640 6262 c-33 -5 -40 -18 -40 -79 0 -83 -1 -83 106 -83 107 0 114
5 114 82 0 64 -14 76 -90 81 -36 2 -76 1 -90 -1z"/>
<path d="M5035 6263 c-11 -3 -26 -10 -32 -15 -17 -13 -17 -120 -1 -136 7 -7
44 -12 98 -12 54 0 91 5 98 12 17 17 16 123 -2 137 -16 13 -129 23 -161 14z"/>
<path d="M5415 6262 c-29 -6 -35 -20 -35 -83 0 -36 5 -61 14 -68 9 -8 46 -11
103 -9 l88 3 3 73 c3 68 2 73 -21 81 -23 9 -112 10 -152 3z"/>
<path d="M8672 3575 c0 -16 2 -22 5 -12 2 9 2 23 0 30 -3 6 -5 -1 -5 -18z"/>
<path d="M8928 3343 c6 -2 18 -2 25 0 6 3 1 5 -13 5 -14 0 -19 -2 -12 -5z"/>
<path d="M9062 3284 c10 -10 20 -16 22 -13 3 3 -5 11 -17 18 -21 13 -21 12 -5
-5z"/>
<path d="M8940 3166 c0 -2 8 -10 18 -17 15 -13 16 -12 3 4 -13 16 -21 21 -21
13z"/>
<path d="M8991 3084 c0 -11 3 -14 6 -6 3 7 2 16 -1 19 -3 4 -6 -2 -5 -13z"/>
<path d="M9174 2930 c0 -52 1 -74 3 -47 2 26 2 68 0 95 -2 26 -3 4 -3 -48z"/>
<path d="M9172 2750 c0 -19 2 -27 5 -17 2 9 2 25 0 35 -3 9 -5 1 -5 -18z"/>
<path d="M9172 2690 c0 -14 2 -19 5 -12 2 6 2 18 0 25 -3 6 -5 1 -5 -13z"/>
<path d="M7898 3275 c-47 -35 -125 -132 -115 -141 3 -3 12 7 20 23 18 33 80
100 122 131 17 12 27 22 24 22 -3 0 -26 -16 -51 -35z"/>
<path d="M8158 3193 c7 -3 16 -2 19 1 4 3 -2 6 -13 5 -11 0 -14 -3 -6 -6z"/>
<path d="M7989 3143 c-32 -36 -53 -63 -47 -63 2 0 21 20 41 45 42 49 45 61 6
18z"/>
<path d="M8368 3144 c-38 -20 -36 -28 2 -9 17 9 30 18 30 20 0 7 -1 6 -32 -11z"/>
<path d="M7925 3039 c-10 -42 -2 -45 11 -3 6 19 8 34 3 34 -4 0 -10 -14 -14
-31z"/>
<path d="M7743 2965 c0 -27 2 -38 4 -22 2 15 2 37 0 50 -2 12 -4 0 -4 -28z"/>
<path d="M7920 2918 c0 -20 19 -72 25 -67 2 3 -2 23 -10 44 -8 22 -14 32 -15
23z"/>
<path d="M8185 2750 c-13 -6 -15 -9 -5 -9 8 0 22 4 30 9 18 12 2 12 -25 0z"/>
<path d="M7862 2684 c9 -10 32 -27 50 -38 l33 -18 -30 26 c-16 14 -39 31 -50
38 -19 10 -19 10 -3 -8z"/>
<path d="M6770 2920 c-66 -28 -81 -111 -30 -162 30 -29 33 -30 109 -27 69 4
85 8 122 34 50 36 75 69 82 111 6 30 4 32 -31 38 -73 13 -227 16 -252 6z"/>
<path d="M2755 3201 c-84 -21 -136 -73 -161 -158 -33 -114 11 -244 97 -289
193 -100 380 77 318 300 -27 99 -154 172 -254 147z"/>
<path d="M4495 3193 c-44 -23 -65 -44 -86 -85 -36 -70 -41 -68 176 -68 215 0
211 -1 179 63 -23 45 -44 66 -86 88 -46 24 -141 25 -183 2z"/>
<path d="M6045 3193 c-44 -23 -65 -44 -86 -85 -36 -70 -41 -68 177 -68 l197 0
-7 32 c-8 42 -52 96 -96 119 -44 24 -142 25 -185 2z"/>
</g>
</svg>
